<?xml version="1.0" encoding="utf-8"?>
<!-- Generator: Adobe Illustrator 27.7.0, SVG Export Plug-In . SVG Version: 6.00 Build 0)  -->
<svg version="1.1" id="레이어_1" xmlns="http://www.w3.org/2000/svg" xmlns:xlink="http://www.w3.org/1999/xlink" x="0px"
	 y="0px" viewBox="0 0 30.6 14.8" style="enable-background:new 0 0 30.6 14.8;" xml:space="preserve">
<style type="text/css">
	.st0{fill:#ACACAC;stroke:#ACACAC;stroke-miterlimit:10;}
</style>
<path class="st0" d="M29.7,1.2c-0.5-0.7-1.5-0.8-2.1-0.3l-12.3,9.6L3,0.9C2.3,0.4,1.4,0.5,0.9,1.2S0.5,2.8,1.2,3.3l13.9,10.8l0,0
	c0,0,0,0,0.1,0c0,0,0,0,0.1,0c0,0,0,0,0.1,0s0,0,0.1,0c0,0,0,0,0.1,0c0,0,0,0,0.1,0l0,0L29.6,3.3C30.1,2.8,30.2,1.8,29.7,1.2z"/>
<circle class="st0" cx="15.5" cy="14.1" r="0.2"/>
</svg>
