<svg width="30" height="30" viewBox="0 0 30 30" fill="none" xmlns="http://www.w3.org/2000/svg">
<path d="M15.8463 16.1538C20.307 16.1538 23.9232 12.5377 23.9232 8.07692C23.9232 3.61616 20.307 0 15.8463 0C11.3855 0 7.76935 3.61616 7.76935 8.07692C7.76935 12.5377 11.3855 16.1538 15.8463 16.1538Z" fill="white"/>
<path d="M15.8461 15C19.6696 15 22.7691 11.9004 22.7691 8.07689C22.7691 4.25338 19.6696 1.15381 15.8461 1.15381C12.0225 1.15381 8.92297 4.25338 8.92297 8.07689C8.92297 11.9004 12.0225 15 15.8461 15Z" stroke="#707070" stroke-width="2"/>
<path d="M6.61542 17.3078H23.9231C25.4532 17.3078 26.9206 17.9156 28.0026 18.9975C29.0845 20.0795 29.6923 21.5469 29.6923 23.077V30.0001H0.846191V23.077C0.846191 21.5469 1.45402 20.0795 2.53596 18.9975C3.6179 17.9156 5.08533 17.3078 6.61542 17.3078Z" fill="white"/>
<path d="M6.61539 18.4616H23.9231C25.1472 18.4616 26.3211 18.9479 27.1866 19.8135C28.0522 20.679 28.5385 21.8529 28.5385 23.077V28.8463H2V23.077C2 21.8529 2.48626 20.679 3.35182 19.8135C4.21737 18.9479 5.39131 18.4616 6.61539 18.4616Z" stroke="#707070" stroke-width="2"/>
</svg>
