<svg width="31" height="32" viewBox="0 0 31 32" fill="none" xmlns="http://www.w3.org/2000/svg">
<path d="M23.506 26.7353C23.3294 26.435 23.1601 26.1347 23.0053 25.8406C26.8373 24.2387 29.421 21.216 29.421 17.7516C29.421 12.612 23.7359 8.44522 16.7201 8.44522C9.70442 8.44522 4.01926 12.612 4.01926 17.7516C4.01926 22.8911 9.70442 27.0579 16.7201 27.0579C17.5147 27.0584 18.3084 27.0041 19.0958 26.8953C20.5086 28.6307 22.3386 29.9575 24.4048 30.7444C24.6886 30.8845 24.9947 30.9711 25.3084 31.0001C26.3256 31.0001 24.7568 28.8683 23.506 26.7353Z" fill="white" stroke="#707070" stroke-width="2"/>
<path d="M6.91013 19.29C7.08673 18.9898 7.25615 18.6895 7.41098 18.3954C3.57894 16.7935 1 13.7708 1 10.3063C1 5.16676 6.68515 1 13.7009 1C20.7166 1 26.4018 5.16676 26.4018 10.3063C26.4018 15.4459 20.7166 19.6127 13.7009 19.6127C12.9063 19.6132 12.1128 19.5589 11.3254 19.4502C9.91262 21.1844 8.08313 22.5103 6.01769 23.2967C5.73386 23.4368 5.42771 23.5234 5.11402 23.5524C4.0907 23.5548 5.65939 21.4231 6.91013 19.29Z" fill="white" stroke="#707070" stroke-width="2"/>
</svg>
