<svg width="11" height="9" viewBox="0 0 11 9" fill="none" xmlns="http://www.w3.org/2000/svg">
<path d="M5.85842 8.80585C5.8219 8.86493 5.76958 8.91394 5.70669 8.94801C5.6438 8.98207 5.57254 9 5.5 9C5.42747 9 5.3562 8.98207 5.29331 8.94801C5.23042 8.91394 5.1781 8.86493 5.14158 8.80585L0.0565405 0.588099C0.0197525 0.528675 0.000249863 0.461153 1.90735e-06 0.392351C-0.000246048 0.323549 0.0187702 0.255903 0.0551291 0.196245C0.0914879 0.136586 0.143903 0.0870266 0.207082 0.0525694C0.27026 0.0181131 0.341966 -2.00272e-05 0.414958 0L10.585 0C10.658 -2.00272e-05 10.7297 0.0181131 10.7929 0.0525694C10.8561 0.0870266 10.9085 0.136586 10.9449 0.196245C10.9812 0.255903 11.0002 0.323549 11 0.392351C10.9997 0.461153 10.9802 0.528675 10.9435 0.588099L5.85842 8.80585Z" fill="#1C1C1C"/>
</svg>
