<svg width="14" height="14" viewBox="0 0 14 14" fill="none" xmlns="http://www.w3.org/2000/svg">
<path d="M7 12.2768C9.1431 10.7339 11.6607 8.5344 12.622 6.1877C13.157 4.88122 13.1249 3.7214 12.5291 2.83363C11.977 2.01102 10.9798 1.5 9.92647 1.5C9.05708 1.5 8.29421 1.85223 7.7784 2.49181L7 3.45697L6.2216 2.49181C5.70578 1.85223 4.94292 1.5 4.07353 1.5C3.02037 1.5 2.02317 2.01106 1.47107 2.83373C0.875251 3.72156 0.843071 4.88134 1.37796 6.18759C2.33929 8.53439 4.8569 10.7339 7 12.2768ZM7 13.5C3.23614 10.9043 1.26215 8.54296 0.452591 6.56665C-1.71619 1.27036 4.47849 -1.26247 7 1.86404C9.52151 -1.26247 15.7162 1.27037 13.5474 6.56665C12.7379 8.54296 10.7639 10.9043 7 13.5Z" fill="#ACACAC"/>
</svg>
